<svg version="1.1" id="Layer_1" xmlns="http://www.w3.org/2000/svg" xmlns:xlink="http://www.w3.org/1999/xlink" x="0px" y="0px" viewBox="0 0 204.7 120.6" style="enable-background:new 0 0 204.7 120.6;" xml:space="preserve">
 <style type="text/css">
  .st0{fill:#4B81C2;}
 </style>
 <g>
  <path class="st0" d="M44.1,68c3.6,0,5.9-1.9,5.9-4.8v-0.1c0-3.1-2.2-4.8-6-4.8h-7.4V68H44.1 M31.7,53.7h12.8c3.6,0,6.5,1.1,8.3,2.9
		c1.5,1.6,2.4,3.7,2.4,6.2v0.1c0,4.7-2.8,7.6-6.8,8.7l7.8,10.9h-6l-7.1-10h-6.3v10h-5.1V53.7z">
  </path>
  <path class="st0" d="M59.6,68.2L59.6,68.2c0-8.3,6.1-15,14.8-15c5.3,0,8.5,1.9,11.3,4.5l-3.2,3.7c-2.3-2.1-4.8-3.6-8.1-3.6
		c-5.5,0-9.5,4.5-9.5,10.2v0.1c0,5.6,4,10.2,9.5,10.2c3.5,0,5.8-1.4,8.3-3.7l3.2,3.3c-3,3.1-6.3,5.1-11.7,5.1
		C65.9,83,59.6,76.4,59.6,68.2">
  </path>
  <path class="st0" d="M103.4,70.1h-8V78h8.4c3.5,0,5.5-1.4,5.5-3.9V74C109.3,71.6,107.4,70.1,103.4,70.1 M107.7,61.9
		c0-2.3-1.8-3.7-5.1-3.7h-7.3v7.6h6.9C105.5,65.8,107.7,64.6,107.7,61.9L107.7,61.9z M90.4,53.7h12.9c3.3,0,5.9,0.9,7.5,2.5
		c1.3,1.3,1.9,2.8,1.9,4.8v0.1c0,3.5-2,5.3-4.1,6.4c3.4,1.2,5.7,3.1,5.7,7v0.1c0,5.1-4.2,7.9-10.6,7.9H90.4V53.7z">
  </path>
  <path class="st0" d="M118.9,68.2L118.9,68.2c0-8.3,6.1-15,14.8-15c5.3,0,8.5,1.9,11.3,4.5l-3.2,3.7c-2.3-2.1-4.8-3.6-8.1-3.6
		c-5.5,0-9.5,4.5-9.5,10.2v0.1c0,5.6,4,10.2,9.5,10.2c3.5,0,5.8-1.4,8.3-3.7l3.2,3.3c-3,3.1-6.3,5.1-11.7,5.1
		C125.1,83,118.9,76.4,118.9,68.2">
  </path>
  <polyline class="st0" points="52.5,120.6 0.3,90.5 0.3,30.2 52.5,0.1 104.6,31.5 104.6,51.5 100.2,51.5 100.2,34 52.5,5.3 
		4.8,32.8 4.8,87.9 52.5,115.4 100.2,87.9 100.2,84.7 104.6,84.7 104.6,90.5 52.5,120.6 	">
  </polyline>
  <path class="st0" d="M43.8,67.9c3.6,0,5.9-1.9,5.9-4.8V63c0-3.1-2.2-4.8-6-4.8h-7.4v9.7H43.8 M31.3,53.6h12.8
		c3.6,0,6.5,1.1,8.3,2.9c1.5,1.6,2.4,3.7,2.4,6.2v0.1c0,4.7-2.8,7.6-6.8,8.7l7.8,10.9h-6l-7.1-10h-6.3v10h-5.1V53.6z">
  </path>
  <path class="st0" d="M59.3,68.1L59.3,68.1c0-8.3,6.1-15,14.8-15c5.3,0,8.5,1.9,11.3,4.5l-3.2,3.7c-2.3-2.1-4.8-3.6-8.1-3.6
		c-5.5,0-9.5,4.5-9.5,10.2V68c0,5.6,4,10.2,9.5,10.2c3.5,0,5.8-1.4,8.3-3.7l3.2,3.3c-3,3.1-6.3,5.1-11.7,5.1
		C65.6,82.9,59.3,76.4,59.3,68.1">
  </path>
  <path class="st0" d="M103.1,70h-8v7.9h8.4c3.5,0,5.5-1.4,5.5-3.9v-0.1C109,71.5,107.1,70,103.1,70 M107.4,61.8
		c0-2.3-1.8-3.7-5.1-3.7h-7.3v7.6h6.9C105.2,65.7,107.4,64.5,107.4,61.8L107.4,61.8z M90.1,53.6H103c3.3,0,5.9,0.9,7.5,2.5
		c1.3,1.3,1.9,2.8,1.9,4.8V61c0,3.5-2,5.3-4.1,6.4c3.4,1.2,5.7,3.1,5.7,7v0.1c0,5.1-4.2,7.9-10.6,7.9H90.1V53.6z">
  </path>
  <path class="st0" d="M118.5,68.1L118.5,68.1c0-8.3,6.1-15,14.8-15c5.3,0,8.5,1.9,11.3,4.5l-3.2,3.7c-2.3-2.1-4.8-3.6-8.1-3.6
		c-5.5,0-9.5,4.5-9.5,10.2V68c0,5.6,4,10.2,9.5,10.2c3.5,0,5.8-1.4,8.3-3.7l3.2,3.3c-3,3.1-6.3,5.1-11.7,5.1
		C124.8,82.9,118.5,76.4,118.5,68.1">
  </path>
  <polyline class="st0" points="52.2,120.5 0,90.4 0,30.1 52.2,0 104.3,31.4 104.3,51.4 99.9,51.4 99.9,33.9 52.1,5.2 4.5,32.7 
		4.5,87.8 52.2,115.3 99.9,87.8 99.9,84.6 104.3,84.6 104.3,90.4 52.2,120.5 	">
  </polyline>
  <polyline class="st0" points="126.9,89.5 128.2,89.5 126.6,105.1 124.8,105.1 123.7,91.2 123.7,91.2 122.6,105.1 120.7,105.1 
		119.1,89.5 120.5,89.5 121.6,103.5 121.7,103.5 122.8,89.5 124.6,89.5 125.8,103.5 125.8,103.5 126.9,89.5 	">
  </polyline>
  <path class="st0" d="M131.9,95.5c0-0.9-0.3-1.2-0.9-1.2c-0.5,0-0.9,0.3-0.9,1.2v2.9h1.8V95.5 M131.9,101.3h1.3v1.7
		c0,1.8-1.1,2.3-2.2,2.3c-1.1,0-2.2-0.5-2.2-2.3v-7.5c0-1.8,1.1-2.3,2.2-2.3c1.1,0,2.2,0.5,2.2,2.3v4.1h-3.1v3.4
		c0,0.9,0.3,1.2,0.9,1.2c0.5,0,0.9-0.3,0.9-1.2V101.3z">
  </path>
  <path class="st0" d="M140.5,95.8c0-0.9-0.3-1.4-0.8-1.4c-0.6,0-1,0.6-1,1.3v7.2c0,1,0.5,1.3,1,1.3c0.5,0,0.8-0.4,0.8-1.3V95.8
		 M137.4,89.5h1.3V94h0c0.2-0.3,0.4-0.5,0.6-0.6c0.3-0.1,0.6-0.2,0.9-0.2c0.9,0,1.5,0.8,1.5,1.8v7.9c0,1.8-0.9,2.3-1.7,2.3
		c-0.8,0-1.1-0.4-1.4-0.9h0v0.7h-1.3V89.5z">
  </path>
  <path class="st0" d="M146.3,95.5c0-0.9-0.3-1.2-0.9-1.2c-0.5,0-0.9,0.3-0.9,1.2v2.9h1.8V95.5 M146.3,101.3h1.3v1.7
		c0,1.8-1.1,2.3-2.2,2.3c-1.1,0-2.2-0.5-2.2-2.3v-7.5c0-1.8,1.1-2.3,2.2-2.3c1.1,0,2.2,0.5,2.2,2.3v4.1h-3.1v3.4
		c0,0.9,0.3,1.2,0.9,1.2c0.5,0,0.9-0.3,0.9-1.2V101.3z">
  </path>
  <rect x="149.2" y="89.5" class="st0" width="1.3" height="15.6">
  </rect>
  <path class="st0" d="M152.1,93.3h1.3v11.8h-1.3V93.3z M152.1,89.5h1.4v1.6h-1.4V89.5z">
  </path>
  <path class="st0" d="M158.1,95.5c0-0.9-0.3-1.2-0.9-1.2c-0.5,0-0.9,0.3-0.9,1.2v2.9h1.8V95.5 M158.1,101.3h1.3v1.7
		c0,1.8-1.1,2.3-2.2,2.3c-1.1,0-2.2-0.5-2.2-2.3v-7.5c0-1.8,1.1-2.3,2.2-2.3c1.1,0,2.2,0.5,2.2,2.3v4.1h-3.1v3.4
		c0,0.9,0.3,1.2,0.9,1.2c0.5,0,0.9-0.3,0.9-1.2V101.3z">
  </path>
  <polyline class="st0" points="160.4,93.3 161.7,93.3 162.8,103.3 162.8,103.3 163.9,93.3 165.2,93.3 163.8,105.1 161.8,105.1 
		160.4,93.3 	">
  </polyline>
  <path class="st0" d="M169.3,95.5c0-0.9-0.3-1.2-0.9-1.2c-0.5,0-0.9,0.3-0.9,1.2v2.9h1.8V95.5 M169.3,101.3h1.3v1.7
		c0,1.8-1.1,2.3-2.2,2.3c-1.1,0-2.2-0.5-2.2-2.3v-7.5c0-1.8,1.1-2.3,2.2-2.3c1.1,0,2.2,0.5,2.2,2.3v4.1h-3.1v3.4
		c0,0.9,0.3,1.2,0.9,1.2c0.5,0,0.9-0.3,0.9-1.2V101.3z">
  </path>
  <path class="st0" d="M174.9,93.3h1.3v11.8h-1.3V93.3z M174.8,89.5h1.4v1.6h-1.4V89.5z">
  </path>
  <path class="st0" d="M177.7,93.3h1.3v0.8h0c0.3-0.5,0.9-0.9,1.6-0.9c1.1,0,1.6,0.8,1.6,1.8v10.2h-1.3v-9.6c0-0.6-0.2-1.1-0.8-1.1
		c-0.6,0-0.9,0.6-0.9,1.1v9.6h-1.3V93.3">
  </path>
  <polyline class="st0" points="188.5,107.5 187.1,107.5 187.6,105.1 185.9,93.3 187.2,93.3 188.2,101.3 188.2,101.3 189.4,93.3 
		190.7,93.3 188.5,107.5 	">
  </polyline>
  <path class="st0" d="M194.8,95.5c0-0.9-0.3-1.2-0.9-1.2c-0.5,0-0.9,0.3-0.9,1.2v7.5c0,0.9,0.3,1.2,0.9,1.2c0.5,0,0.9-0.3,0.9-1.2
		V95.5 M191.7,95.5c0-1.8,1.1-2.3,2.2-2.3c1.1,0,2.2,0.5,2.2,2.3v7.5c0,1.8-1.1,2.3-2.2,2.3c-1.1,0-2.2-0.5-2.2-2.3V95.5z">
  </path>
  <path class="st0" d="M201.9,105.1h-1.3v-0.8h0c-0.3,0.5-0.9,0.9-1.6,0.9c-1.1,0-1.6-0.8-1.6-1.8V93.3h1.3v9.6
		c0,0.6,0.2,1.1,0.8,1.1c0.6,0,0.9-0.6,0.9-1.1v-9.6h1.3V105.1">
  </path>
  <rect x="203.3" y="103.5" class="st0" width="1.4" height="1.6">
  </rect>
 </g>
</svg>